# xmcd CD database file
#
# Track frame offsets:
#	150
#	3784
#	27080
#	62417
#	77167
#	95457
#	130761
#	142159
#	160793
#	179523
#	188677
#	197780
#	210348
#	225538
#	250123
#
# Disc length: 3467 seconds
#
# Revision: 0
# Processed by: cddbd v1.5.2PL0 Copyright (c) Steve Scherf et al.
# Submitted via: CDex 1.70beta2
#
DISCID=ba0d890f
DTITLE=Splatter Trio - Clear The Club
DYEAR=2007
DGENRE=Jazz
TTITLE0=Top Of The Hour
TTITLE1=Michaelle's Theme
TTITLE2=Ruminations
TTITLE3=Space Calculated In Seconds
TTITLE4=Butter Churner (3-4-5)
TTITLE5=Selim
TTITLE6=Teo
TTITLE7=Peter Herley Pt. III
TTITLE8=Stares At The Sun
TTITLE9=Glitchfarben
TTITLE10=Base 5 Curly Motherfucker
TTITLE11=Nevada
TTITLE12=In That Dark World
TTITLE13=Peter Herley Pt. IV
TTITLE14=The Mumbler
EXTD=YEAR: 2007
EXTT0=
EXTT1=
EXTT2=
EXTT3=
EXTT4=
EXTT5=
EXTT6=
EXTT7=
EXTT8=
EXTT9=
EXTT10=
EXTT11=
EXTT12=
EXTT13=
EXTT14=
PLAYORDER=
